<svg width="11" height="12" viewBox="0 0 11 12" fill="none" xmlns="http://www.w3.org/2000/svg">
<g clip-path="url(#clip0_1385_945)">
<path d="M5.49941 0.000976562C3.30274 0.000976562 1.51562 1.78836 1.51562 3.98535C1.51562 6.71187 5.08072 10.7146 5.23251 10.8836C5.37508 11.0425 5.624 11.0422 5.76631 10.8836C5.9181 10.7146 9.48319 6.71187 9.48319 3.98535C9.48315 1.78836 7.69606 0.000976562 5.49941 0.000976562ZM5.49941 5.99C4.39421 5.99 3.49509 5.09072 3.49509 3.98535C3.49509 2.87998 4.39423 1.98072 5.49941 1.98072C6.60459 1.98072 7.50371 2.88 7.50371 3.98537C7.50371 5.09074 6.60459 5.99 5.49941 5.99Z" fill="white"/>
</g>
<defs>
<clipPath id="clip0_1385_945">
<rect width="11" height="11.0017" fill="white" transform="translate(0 0.000976562)"/>
</clipPath>
</defs>
</svg>
