<svg width="38" height="38" viewBox="0 0 38 38" fill="none" xmlns="http://www.w3.org/2000/svg">
<g clip-path="url(#clip0_1_1665)">
<path d="M22.045 22.1122C22.045 22.1766 22.0678 22.2138 22.1096 22.2138C22.1438 22.2104 22.1742 22.1969 22.2008 22.18L34.044 15.3276C34.2442 15.2029 34.4839 15.1388 34.728 15.1447H37.3307C37.7296 15.1447 37.9994 15.3818 37.9994 15.7375V20.168C37.9994 20.7031 37.8664 21.0148 37.3345 21.2993L34.177 22.9929C34.1456 23.0124 34.1088 23.0241 34.0706 23.0268C34.0326 23.0268 33.9947 22.9997 33.9947 22.9014V17.7325C33.9947 17.6716 33.9757 17.6309 33.9301 17.6309C33.8967 17.6343 33.8651 17.6461 33.8389 17.6648L25.1835 22.6779C24.9859 22.7964 24.7541 22.8608 24.5186 22.8574H18.7812C18.3785 22.8574 18.1125 22.6203 18.1125 22.2613V15.8763C18.1125 15.8289 18.0897 15.7849 18.0441 15.7849C18.0108 15.7887 17.9793 15.8004 17.9529 15.8188L12.2422 18.874C12.1852 18.9079 12.17 18.9316 12.17 18.9553C12.17 18.9757 12.1814 18.996 12.2194 19.0332L16.3001 22.6677C16.3533 22.7151 16.3913 22.7524 16.3913 22.793C16.3913 22.8269 16.3305 22.854 16.2583 22.854H12.5727C12.284 22.854 12.0598 22.8168 11.904 22.6779L9.43051 20.4762C9.42113 20.4662 9.40954 20.458 9.39647 20.4522C9.38339 20.4464 9.36911 20.443 9.35451 20.4423C9.32769 20.4434 9.30159 20.4504 9.27852 20.4626L5.1446 22.6779C4.89383 22.8134 4.72285 22.8506 4.47588 22.8506H0.672522C0.265969 22.854 0 22.6135 0 22.2579V17.9121C0 17.3735 0.132985 17.0653 0.668722 16.7807L3.84515 15.0804C3.87007 15.0658 3.89898 15.0576 3.92874 15.0566C3.97814 15.0566 4.00473 15.1007 4.00473 15.1989V21.0181C4.00473 21.0791 4.01993 21.1062 4.06933 21.1062C4.10352 21.1028 4.13392 21.0893 4.16432 21.0723L14.8943 15.3175C15.0994 15.1921 15.3502 15.1312 15.601 15.1413H21.3763C21.7753 15.1413 22.045 15.3784 22.045 15.7341L22.0412 22.1122H22.045Z" fill="#131E29"/>
</g>
<defs>
<clipPath id="clip0_1_1665">
<rect width="38" height="38" fill="white"/>
</clipPath>
</defs>
</svg>
