<svg width="38" height="38" viewBox="0 0 38 38" fill="none" xmlns="http://www.w3.org/2000/svg">
<path fill-rule="evenodd" clip-rule="evenodd" d="M19.0006 3.92383C23.4037 3.92383 27.974 4.29973 32.6128 5.10036C32.6821 6.95999 32.7606 9.83447 32.6286 12.2737C32.333 17.712 31.1361 21.9331 28.8606 25.5578C26.5923 29.172 23.0798 32.2796 19.0006 34.1253C14.9214 32.2796 11.4086 29.172 9.14028 25.5578C6.86511 21.9331 5.6679 17.712 5.37256 12.2737C5.23995 9.83447 5.31883 6.95999 5.38809 5.10036C10.0269 4.29973 14.5975 3.92383 19.0006 3.92383ZM19.0006 4.44773C14.6599 4.44773 10.253 4.8168 5.89585 5.54529C5.8002 8.3041 5.8002 10.4992 5.89523 12.2454C6.1853 17.591 7.35735 21.7328 9.58346 25.2792C11.8092 28.8253 15.1468 31.7545 19.0006 33.5491C22.854 31.7545 26.192 28.8253 28.4177 25.2792C30.6438 21.7328 31.8156 17.591 32.106 12.2454C32.201 10.4992 32.201 8.3041 32.1053 5.54529C27.7482 4.8168 23.341 4.44773 19.0006 4.44773ZM18.9626 20.3284C18.9626 20.3284 19.0484 20.8374 19.0745 20.9851C19.089 21.0687 19.0922 21.0911 19.071 21.1732C19.0025 21.4372 18.6861 22.8284 18.4328 24.2525L18.3933 24.4775C18.2898 25.0774 18.2004 25.6728 18.1484 26.1822C18.1189 26.4716 18.1285 26.541 18.2049 26.7978C18.4213 27.5235 19.222 29.4195 19.3757 29.7653C19.3928 29.8035 19.403 29.8436 19.408 29.885L19.4658 30.3321C19.2092 29.9443 17.8154 27.3802 17.2679 25.9602C17.2033 25.7929 17.1909 25.7105 17.2623 25.403C17.6431 23.7716 18.6732 20.9994 18.9626 20.3284ZM16.93 16.3875C16.93 16.3875 17.0371 16.7347 17.1404 17.1118L17.1765 17.2457C17.2418 17.4914 17.3 17.7339 17.321 17.8874C17.3412 18.0351 17.3378 18.0749 17.2853 18.2163C17.158 18.5552 16.9238 19.1003 16.674 19.6575L16.5662 19.8965C16.2597 20.5726 15.9494 21.2257 15.7987 21.5084C15.7244 21.6477 15.6546 21.7385 15.5148 21.8806C15.1959 22.2055 14.5853 22.8196 14.2073 23.1631C14.0701 23.2881 14.0331 23.3948 14.0052 23.5564C13.9601 23.8161 13.9154 24.2591 13.903 24.488C13.8921 24.6891 13.9247 24.7833 14.0368 24.9826C14.703 26.1719 16.9269 28.908 17.5605 29.4826C17.6064 29.5243 17.64 29.5523 17.7369 29.6166C17.83 29.6788 18.1338 29.8759 18.1338 29.8759C18.1459 29.8843 18.1561 29.8955 18.1639 29.9083L18.2738 30.102C18.2738 30.102 18.2636 30.0969 18.245 30.0877L18.1975 30.0641C18.1594 30.045 18.1089 30.0199 18.0509 29.9909L17.9097 29.9201C17.6933 29.8114 17.4352 29.6807 17.2996 29.6076C17.2437 29.5775 17.1912 29.542 17.1425 29.5013C16.4005 28.8844 14.1269 26.2214 13.4583 25.1095C13.2915 24.8318 13.2744 24.742 13.2968 24.4793C13.3387 23.9902 13.4036 23.3752 13.4604 23.1056C13.4949 22.943 13.5306 22.8475 13.6552 22.7039C14.0737 22.2217 14.5841 21.5852 15.0815 20.932L15.2564 20.701C16.0102 19.6991 16.7046 18.6962 16.9639 18.1853C17.0232 18.069 17.0282 18.0285 17.0294 17.9188C17.0328 17.6004 16.9313 16.9804 16.9046 16.8237C16.9005 16.7992 16.8993 16.7743 16.9015 16.7494L16.93 16.3875ZM23.1352 15.7899L23.3274 15.8736C23.3842 15.8981 23.4361 15.9342 23.479 15.979C24.6575 17.2102 25.6001 18.4869 25.7889 18.8233C25.8252 18.888 25.8501 18.9526 25.8591 19.0266C26.0709 20.8222 25.8889 22.7244 25.4563 24.3792C25.4172 24.5284 25.3734 24.6049 25.2299 24.7128C24.768 25.0605 24.0786 25.615 23.3929 26.1803L23.1768 26.359C22.3509 27.0435 21.5662 27.7136 21.2333 28.0219C21.1497 28.0997 21.0768 28.1874 21.0171 28.2847C20.861 28.5387 20.6226 28.9759 20.5055 29.1928L20.4728 29.2536C20.4494 29.2973 20.4358 29.3228 20.4358 29.3228C20.2805 28.9836 19.942 28.1559 19.8258 27.8214C19.7879 27.7123 19.7811 27.6551 19.8212 27.5089C20.0106 26.8153 20.906 24.7986 21.0802 24.4339L21.0805 24.5831C21.0805 24.6049 21.0771 24.6264 21.0702 24.6469C20.9917 24.8854 20.5103 26.4748 20.4125 27.1641C20.3907 27.3174 20.3926 27.3587 20.4125 27.5092C20.4553 27.831 20.6476 28.4212 20.6476 28.4212C20.6476 28.4212 20.7615 28.183 20.8678 28.0219C20.9199 27.943 20.9513 27.905 21.0364 27.8205C21.4668 27.3943 22.2012 26.7356 22.966 26.0732L23.2368 25.8396C23.8243 25.3349 24.4109 24.8437 24.8743 24.4684C24.9948 24.3708 25.0398 24.3055 25.0665 24.1202C25.1995 23.2073 25.238 21.5687 25.1578 20.3764C25.1426 20.1512 25.0696 19.9336 24.9429 19.7467C24.6523 19.3167 24.3047 18.9097 23.7777 18.3871C23.7026 18.3121 23.6513 18.2164 23.6321 18.1119C23.4783 17.2911 23.1352 15.7899 23.1352 15.7899ZM13.1686 17.6891C13.2419 17.6654 13.3198 17.6626 13.3944 17.6807C13.7304 17.7615 14.4416 17.9359 14.9791 18.0737C15.0546 18.0929 15.1487 18.1635 15.1888 18.2304L15.3059 18.4253C15.3468 18.4937 15.3496 18.5777 15.3133 18.6486C15.2156 18.8382 15.0762 19.095 14.9289 19.3597L14.8174 19.5589C14.6122 19.9234 14.4079 20.275 14.2919 20.46C14.2155 20.5822 14.1729 20.6363 14.0369 20.6845C13.508 20.8707 12.8512 21.0933 12.4608 21.2199C12.381 21.2457 12.354 21.2942 12.3695 21.3828C12.3974 21.5442 12.4875 22.092 12.522 22.2518C12.5347 22.3109 12.5819 22.3579 12.6695 22.3411C12.9002 22.2972 13.5145 22.1467 13.5145 22.1467C13.5145 22.1467 13.3335 22.3143 13.2251 22.4132C13.2052 22.4319 13.1822 22.4455 13.1565 22.4539C12.9891 22.5099 12.5804 22.6246 12.453 22.6526C12.3537 22.6741 12.2903 22.6349 12.2648 22.5223C12.2648 22.5223 12.0906 21.7799 12.0276 21.5274C12.0176 21.4888 12.0077 21.4556 11.9956 21.4176C11.9484 21.2715 11.835 20.9842 11.771 20.8337C11.7636 20.8163 11.7599 20.7977 11.7602 20.7784C11.762 20.6064 11.7937 20.2228 11.7937 20.2228C11.7937 20.2228 12.1698 20.5757 12.3518 20.7031C12.3928 20.732 12.4173 20.738 12.4676 20.7252C12.7176 20.6608 13.2925 20.4706 13.608 20.3524C13.6801 20.3254 13.7431 20.28 13.7922 20.2206C14.1186 19.826 14.5279 19.2123 14.7642 18.7493C14.7968 18.6856 14.8031 18.6125 14.7826 18.5441L14.7316 18.3762C14.7167 18.3271 14.6649 18.2717 14.617 18.2534C14.0608 18.0416 13.6223 17.8843 13.1071 17.7086L13.1686 17.6891ZM24.1689 12.9103C24.2912 12.8652 24.4254 12.8683 24.5456 12.919C25.4779 13.3107 27.0456 14.2323 27.917 14.8815C28.0012 14.9443 28.0347 14.9875 28.0568 15.0889C28.2614 16.0204 28.3391 17.4603 28.2102 18.6726C28.2009 18.7597 28.1835 18.8119 28.1381 18.9049C27.586 20.0351 26.9645 21.0987 26.3105 21.9192L26.3118 21.9058C26.3203 21.8184 26.3673 21.3258 26.3698 21.0592C26.3701 21.0291 26.3841 21.0014 26.408 20.9831C26.5294 20.8885 26.6962 20.7542 26.7906 20.6724C26.8366 20.6326 26.8621 20.6028 26.886 20.5642C27.1524 20.1333 27.6288 19.231 27.8208 18.6881C27.8676 18.5557 27.8863 18.4155 27.8748 18.2752C27.8133 17.5188 27.6947 16.4706 27.518 15.7866C27.4878 15.67 27.4108 15.5715 27.3037 15.5164C27.1512 15.4381 26.8521 15.3016 26.1711 15.0283C26.0766 14.9903 25.9884 14.9378 25.9108 14.8725C25.4642 14.4969 24.7661 13.9338 24.3316 13.6098C24.2046 13.515 24.0425 13.4805 23.8878 13.5156C23.5713 13.5875 23.1685 13.6876 22.9418 13.7491C22.8648 13.77 22.8344 13.7718 22.7549 13.7625C22.7135 13.7577 22.66 13.7524 22.6037 13.7473L22.5186 13.7398C22.4196 13.7314 22.3267 13.7242 22.2903 13.7214L22.2741 13.7202C23.013 13.3729 23.7238 13.0732 24.1689 12.9103ZM14.3116 19.0247C14.0805 19.4053 13.8044 19.8095 13.5957 20.062C13.5684 20.0949 13.5321 20.1204 13.4908 20.136C13.2625 20.2215 12.8821 20.3502 12.602 20.4357L14.3116 19.0247ZM11.2578 18.5251L11.1215 19.4669L10.6578 18.9221C10.7423 18.739 10.9892 18.5661 11.2578 18.5251ZM13.7553 13.1931L13.6286 13.3492C13.6215 13.3561 13.6147 13.3626 13.6075 13.3697C13.496 13.4521 13.0268 13.8119 12.8998 13.9126C12.8637 13.9412 12.8494 13.9661 12.8411 14.0112C12.8125 14.1704 12.765 14.4729 12.751 14.6405C12.747 14.6896 12.7258 14.7139 12.6758 14.7341C12.4581 14.8227 12.2001 14.916 11.9914 14.9996C11.9466 15.0173 11.9342 15.0242 11.9078 15.0444C11.887 15.0605 11.6097 15.3083 11.6097 15.3083C11.6097 15.3083 12.2125 15.1597 12.4336 15.1097C12.4864 15.0979 12.5091 15.101 12.5578 15.124C12.6035 15.1451 12.6796 15.1753 12.7196 15.1899C12.7811 15.2126 12.8137 15.2117 12.8817 15.1967C13.1308 15.1411 13.5498 15.0416 13.7727 14.9834C13.8886 14.9533 13.9519 14.9219 14.0501 14.8532C14.1569 14.7788 14.4274 14.5758 14.4274 14.5758C14.4274 14.5758 14.4224 14.6116 14.4187 14.6315C14.4159 14.6486 14.4097 14.6582 14.3985 14.6716C14.3435 14.7378 14.2473 14.8457 14.1994 14.8951C14.0898 15.0086 14.0243 15.049 13.8867 15.1066C13.2532 15.3708 12.1706 15.7813 11.3584 16.0626C11.3053 16.0813 11.2823 16.0965 11.2429 16.137C11.2 16.1805 11.1429 16.2439 11.1429 16.2439C11.1429 16.2439 11.805 16.2921 12.0072 16.3154C12.0727 16.3229 12.1196 16.3443 12.1696 16.3876C12.3358 16.5306 12.8858 17.0974 13.0504 17.2942C13.0504 17.2942 11.4867 17.5545 10.7622 17.7345C10.6727 17.7566 10.628 17.8135 10.6078 17.8853C10.5479 18.0961 10.4066 18.7739 10.4066 18.7739C10.4066 18.7739 10.3563 18.7577 10.2861 18.7173C10.2379 18.6896 10.2134 18.6666 10.1606 18.6107C9.98917 18.4294 9.70749 18.0824 9.57209 17.8812C9.53234 17.8218 9.51557 17.7463 9.56526 17.6857C9.71215 17.5047 10.0072 17.1745 10.1699 17.0047C10.1873 16.9864 10.2094 16.9544 10.2327 16.9084C10.2874 16.7995 10.3596 16.5237 10.3847 16.4241L10.3928 16.3919L10.3938 16.3876C10.3938 16.3876 10.3923 16.3885 10.3895 16.3903L10.3598 16.409C10.3195 16.4344 10.2544 16.4753 10.2264 16.493C10.1845 16.5197 10.173 16.5312 10.1556 16.5679C10.1292 16.6232 10.083 16.7106 10.0479 16.7712C10.0364 16.7911 10.0056 16.8219 9.98917 16.8347C9.78141 16.9935 9.5519 17.1642 9.38855 17.2793C9.37737 17.2871 9.36308 17.2836 9.35345 17.2743C9.33265 17.2535 9.24538 17.1543 9.22985 17.131C9.21681 17.1114 9.21089 17.093 9.21089 17.0694C9.2106 17.0281 9.21463 16.9553 9.21867 16.9012C9.22364 16.8372 9.24196 16.8067 9.31991 16.7258C9.40718 16.6354 9.50221 16.5402 9.60221 16.4426C9.84725 16.2361 10.4659 15.7337 11.5705 14.9446C11.5914 14.9296 11.6103 14.9122 11.6255 14.8914C11.7417 14.7347 12.0712 14.3069 12.1525 14.2052C12.164 14.1909 12.1768 14.1775 12.1914 14.166C12.3215 14.0631 12.3858 14.0186 12.5178 13.9353C12.8255 13.7413 13.4215 13.3875 13.7553 13.1931ZM20.4884 12.8432C20.5346 12.8351 20.5822 12.8416 20.6247 12.8619L20.9474 13.0164C20.9791 13.0316 21.0024 13.0605 21.0107 13.0954C21.0545 13.28 21.1083 13.5247 21.1443 13.7327C21.1589 13.8192 21.1427 13.9075 21.0989 13.9837C20.9654 14.2159 20.6912 14.6338 20.5378 14.8583C20.5036 14.9087 20.4996 14.9696 20.5101 15.0296C20.5797 15.4145 20.8697 16.7586 20.8697 16.7586L20.6871 16.5923C20.6508 16.5587 20.6269 16.5233 20.6114 16.477C20.4815 16.0967 20.2387 15.3023 20.1269 14.9158C20.1089 14.8521 20.1225 14.784 20.1645 14.7333C20.3548 14.502 20.6322 14.132 20.7943 13.8975C20.8396 13.8316 20.8545 13.7589 20.8278 13.7045C20.7905 13.628 20.7278 13.5117 20.6676 13.4063C20.6514 13.3771 20.6244 13.3553 20.5924 13.3447L20.3735 13.2744C20.3353 13.2623 20.2943 13.2629 20.2564 13.2766C19.7794 13.4498 19.1377 13.6995 18.7452 13.8624C18.6877 13.8863 18.6641 13.8882 18.5946 13.8776C18.4809 13.8608 18.1498 13.8015 17.9874 13.771C17.9582 13.7654 17.9436 13.7324 17.9585 13.7066L18.1511 13.3727C18.1772 13.3276 18.2203 13.2956 18.2713 13.2841C18.8905 13.1429 19.7095 12.9806 20.4884 12.8432ZM13.6358 14.3767C13.6653 14.3742 13.6932 14.3907 13.7047 14.4178C13.7435 14.5083 13.733 14.6093 13.6954 14.6957C13.6808 14.7309 13.6358 14.7651 13.5988 14.7732L13.2898 14.8419C13.2712 14.8459 13.2541 14.831 13.2553 14.812L13.2842 14.4489C13.2864 14.4243 13.3057 14.4047 13.3302 14.4028L13.6358 14.3767ZM17.1518 12.0433C17.1875 12.043 17.2099 12.0815 17.1922 12.1123L16.4388 13.411C16.3969 13.4875 16.3267 13.5444 16.2434 13.5696L14.8307 14.0121C14.6667 14.0618 14.5282 14.0885 14.3574 14.1016C14.044 14.1252 13.1133 14.1545 13.1133 14.1545L13.1338 14.1103C13.1434 14.0895 13.1605 14.073 13.1816 14.064L13.622 13.8768C13.6549 13.8628 13.6838 13.8414 13.7058 13.8137L14.386 12.9754C14.4223 12.9307 14.4698 12.8878 14.5204 12.861C14.9698 12.6244 15.7689 12.269 16.3285 12.0818C16.3813 12.0641 16.4524 12.0529 16.508 12.0523L17.1518 12.0433ZM16.3965 10.5351C17.9556 10.398 20.0652 10.3607 22.0804 10.5134C22.195 10.5221 22.3065 10.5491 22.4124 10.5939C23.0727 10.8719 24.2441 11.48 25.5466 12.2259C25.6041 12.2589 25.6581 12.2974 25.7078 12.3413C26.0528 12.6457 26.927 13.5411 26.927 13.5411L26.6544 13.487C26.6162 13.4796 26.5805 13.4646 26.5482 13.4429C25.9966 13.0719 25.1913 12.5891 24.5165 12.2486C24.4363 12.2085 24.3497 12.1827 24.2606 12.1734C23.9323 12.1382 23.4885 12.1075 23.1981 12.0956C23.055 12.0897 22.9575 12.0658 22.8174 11.9946C22.5497 11.8587 21.9012 11.5643 21.5783 11.4408C21.4401 11.388 21.3696 11.3756 21.2342 11.3777C20.6792 11.3858 19.4149 11.4262 18.7692 11.4663C18.7469 11.4676 18.7254 11.4667 18.7037 11.4632L18.3959 11.415C19.2686 11.2646 21.4258 11.0721 22.3186 11.0251L21.9553 10.9036C21.8851 10.8803 21.8121 10.8678 21.7379 10.866C21.5441 10.8613 21.113 10.8527 20.5535 10.852L20.3624 10.852C19.5149 10.8537 18.4245 10.8745 17.4189 10.9502C17.331 10.9567 17.2453 10.9779 17.1646 11.0136C16.7583 11.1923 15.7678 11.7299 14.7744 12.2822L14.5538 12.4051C14.2969 12.5483 14.0428 12.6908 13.8015 12.8266C13.8015 12.8266 13.9254 12.6671 13.9493 12.636C13.9704 12.609 13.977 12.604 14.0055 12.5854C14.0455 12.5592 14.1817 12.4693 14.3192 12.3781L14.4209 12.3104C14.5034 12.2554 14.5771 12.206 14.6186 12.1774C14.6391 12.1634 14.6521 12.1535 14.6779 12.1342C14.977 11.9085 15.449 11.5105 15.7304 11.2639C15.7941 11.2083 15.8481 11.1436 15.8925 11.0715C15.9835 10.9241 16.0829 10.7643 16.1441 10.6757C16.1962 10.5989 16.2854 10.5451 16.3965 10.5351ZM9.75752 6.94898C10.1426 6.90918 10.3578 7.05905 10.3578 7.44925V7.66503C10.3578 8.06426 10.1426 8.22563 9.75752 8.26574C9.22491 8.32139 8.6923 8.38171 8.16062 8.447V9.03682C8.04913 9.05051 7.93733 9.06419 7.82583 9.07849V7.17222C8.46901 7.09076 9.1128 7.01645 9.75752 6.94898ZM27.6308 6.88717C28.4798 6.96987 29.3283 7.06502 30.1752 7.17197V7.47948C29.809 7.43315 29.4423 7.389 29.0752 7.34733V8.94641C28.9637 8.93366 28.8522 8.92122 28.7401 8.90879V7.30971C28.3708 7.26898 28.0006 7.23074 27.6308 7.19467V6.88717ZM13.5257 6.63663V6.94382C12.8272 6.98704 12.1291 7.03834 11.4316 7.09772V7.56722C12.0521 7.51405 12.6729 7.46772 13.294 7.42792V7.73543C12.6729 7.77523 12.0521 7.82155 11.4316 7.87441V8.38961C12.1291 8.32991 12.8272 8.27861 13.5257 8.2357V8.54289C12.7179 8.59264 11.9108 8.65358 11.1039 8.7254V6.81883C11.9108 6.747 12.7179 6.68637 13.5257 6.63663ZM24.3888 7.15882C24.3888 6.7313 24.6006 6.64331 25.078 6.67565C25.4972 6.70456 25.9159 6.73597 26.3348 6.77079C26.7494 6.80499 27.023 6.92159 27.023 7.35781V8.20912C27.023 8.63726 26.7867 8.71437 26.3348 8.67706C25.9159 8.64254 25.4972 8.61083 25.078 8.58222C24.6214 8.55144 24.3888 8.46314 24.3888 8.01013V7.15882ZM21.1406 6.49388C21.9493 6.51316 22.7577 6.54363 23.5661 6.58529V6.89248C22.8674 6.85673 22.1683 6.82906 21.4689 6.80978V7.27896C22.091 7.29637 22.7127 7.32 23.3341 7.35016V7.65767C22.7127 7.62751 22.091 7.60357 21.4689 7.58646V8.10135C22.1683 8.12063 22.8674 8.1483 23.5661 8.18437V8.49156C22.7577 8.45021 21.9493 8.41974 21.1406 8.40015V6.49388ZM16.9326 6.4922V7.87115C16.9326 8.30737 16.7037 8.40313 16.2425 8.41744C15.841 8.42987 15.4394 8.4448 15.0378 8.46283C14.6099 8.48211 14.3484 8.40065 14.3484 7.96877V6.58983L14.6763 6.57304V8.01013C14.6763 8.0975 14.7512 8.1687 14.8506 8.16403C15.377 8.13947 15.9031 8.11957 16.4295 8.10434C16.5295 8.10154 16.5959 8.02505 16.5959 7.93768V6.5006C16.708 6.49749 16.8202 6.49469 16.9326 6.4922ZM24.8913 6.97071C24.7916 6.96387 24.7168 7.03383 24.7168 7.13364V8.07635C24.7168 8.16372 24.7916 8.25545 24.8913 8.26229C25.4351 8.29835 25.9783 8.33939 26.5215 8.38541C26.6084 8.39287 26.6954 8.31297 26.6954 8.22591V7.28288C26.6954 7.18338 26.6084 7.10099 26.5215 7.09353C25.9783 7.04751 25.4351 7.00647 24.8913 6.97071ZM18.3828 6.47031C18.9856 6.46596 19.5884 6.46814 20.1909 6.47622V6.78341C19.5468 6.77502 18.9024 6.77315 18.258 6.77844C18.1707 6.77937 18.0834 6.85493 18.0834 6.9423V7.89745C18.0834 7.98482 18.1707 8.07125 18.258 8.07032C18.8359 8.06535 19.4136 8.06628 19.9915 8.07281V7.55761C19.6561 7.55388 19.3207 7.55201 18.9856 7.55233V7.24482C19.4303 7.24482 19.875 7.24824 20.3198 7.25477V8.38435C19.6949 8.37503 19.0701 8.37254 18.4452 8.37627C17.9878 8.37938 17.7552 8.3004 17.7552 7.85579V7.025C17.7552 6.60992 17.9629 6.47342 18.3828 6.47031ZM9.88282 7.24571L9.8569 7.24622C9.29106 7.30468 8.72553 7.36841 8.16062 7.43775V8.1395C8.72553 8.07048 9.29106 8.00643 9.8569 7.94829C9.94355 7.93896 10.0305 7.85967 10.0305 7.77666V7.39049C10.0305 7.30312 9.94355 7.2372 9.8569 7.24622L9.88282 7.24571Z" fill="black"/>
</svg>
